<?xml version="1.0" standalone="no"?>
<!DOCTYPE svg PUBLIC "-//W3C//DTD SVG 20010904//EN"
 "http://www.w3.org/TR/2001/REC-SVG-20010904/DTD/svg10.dtd">
<svg version="1.0" xmlns="http://www.w3.org/2000/svg"
 width="1024.000000pt" height="1024.000000pt" viewBox="0 0 1024.000000 1024.000000"
 preserveAspectRatio="xMidYMid meet">
<metadata>
Created by potrace 1.16, written by Peter Selinger 2001-2019
</metadata>
<g transform="translate(0.000000,1024.000000) scale(0.100000,-0.100000)"
fill="#000000" stroke="none">
<path d="M4665 10233 c-91 -22 -142 -148 -98 -240 40 -86 172 -117 247 -59 47
35 68 78 68 136 0 116 -100 191 -217 163z"/>
<path d="M4372 9953 c-50 -24 -293 -296 -427 -478 -309 -418 -535 -904 -659
-1417 -39 -163 -96 -497 -96 -566 0 -20 -33 -57 -150 -170 -83 -79 -187 -188
-231 -241 -272 -323 -479 -705 -590 -1086 -17 -60 -35 -114 -39 -118 -8 -9
-135 184 -218 330 -184 323 -333 748 -401 1143 -29 171 -41 285 -49 480 -7
156 -11 180 -31 216 -32 57 -72 79 -147 79 -51 0 -66 -4 -96 -27 -57 -43 -68
-79 -68 -215 0 -346 72 -780 190 -1148 133 -415 371 -855 665 -1230 l70 -89 1
-271 c1 -289 12 -413 59 -634 56 -264 173 -593 276 -778 16 -29 42 -77 59
-106 l30 -54 -58 9 c-112 18 -410 98 -566 153 -420 149 -845 405 -1196 720
-181 162 -190 168 -261 169 -101 1 -164 -66 -164 -174 1 -72 10 -84 196 -252
479 -432 1045 -733 1684 -894 161 -41 520 -103 600 -104 26 0 41 -12 89 -70
81 -97 250 -258 381 -363 314 -251 691 -446 1061 -548 46 -13 84 -27 84 -31 0
-9 -198 -139 -305 -200 -489 -279 -1068 -444 -1625 -464 -91 -3 -181 -10 -201
-15 -77 -19 -122 -80 -122 -165 0 -69 29 -116 90 -145 44 -21 53 -22 232 -16
622 20 1238 194 1786 505 130 74 382 243 495 333 l105 84 275 1 c276 1 371 9
585 49 316 60 668 190 933 345 l52 31 -6 -43 c-25 -164 -131 -530 -212 -733
-135 -335 -393 -744 -651 -1030 -65 -71 -132 -150 -150 -175 -30 -41 -32 -50
-29 -106 3 -48 10 -70 31 -97 51 -67 160 -85 227 -37 54 38 288 307 405 465
410 551 654 1172 749 1901 l14 111 189 189 c407 406 619 768 805 1372 l13 43
71 -108 c366 -557 560 -1156 594 -1829 10 -204 15 -232 47 -270 70 -83 210
-76 268 13 30 45 34 89 24 287 -27 554 -156 1061 -394 1538 -136 273 -271 489
-447 715 l-81 103 -2 287 c-1 215 -6 317 -19 403 -59 389 -169 725 -340 1039
-31 57 -55 105 -53 108 6 5 134 -22 297 -62 543 -136 1095 -435 1519 -822 160
-146 186 -163 252 -163 105 0 175 74 167 176 -6 72 -24 94 -203 255 -586 526
-1299 856 -2092 969 -114 16 -211 30 -214 30 -3 0 -47 47 -98 104 -348 390
-841 701 -1353 856 -72 22 -133 41 -135 44 -3 2 35 31 84 64 273 182 583 332
888 429 341 108 595 154 962 173 143 7 204 14 230 26 106 51 123 200 32 277
-51 44 -69 46 -297 36 -330 -15 -587 -57 -916 -150 -217 -62 -392 -131 -631
-249 -289 -143 -511 -284 -737 -465 l-76 -62 -204 5 c-302 7 -542 -19 -822
-89 -252 -63 -555 -185 -762 -307 l-51 -29 9 52 c18 120 91 392 147 552 153
437 415 874 740 1233 68 74 130 148 139 165 24 46 21 123 -7 168 -43 69 -144
97 -219 60z"/>
<path d="M8291 9070 c-39 -9 -76 -35 -105 -74 -16 -21 -21 -42 -21 -90 0 -53
4 -68 27 -98 71 -93 213 -91 276 5 38 57 37 141 -2 191 -43 57 -107 81 -175
66z"/>
<path d="M1288 8500 c-99 -31 -147 -142 -102 -237 58 -121 238 -121 301 0 20
39 20 115 -1 155 -34 66 -128 105 -198 82z"/>
<path d="M10016 5693 c-43 -7 -112 -81 -119 -129 -19 -117 51 -199 168 -199
103 1 160 58 160 160 -1 119 -85 187 -209 168z"/>
<path d="M135 4891 c-92 -22 -144 -108 -123 -204 22 -105 140 -157 244 -106
72 34 104 132 70 213 -18 43 -62 84 -101 91 -16 4 -37 8 -45 10 -8 1 -29 0
-45 -4z"/>
<path d="M8813 2059 c-130 -64 -99 -277 44 -307 128 -28 229 73 201 201 -22
106 -142 157 -245 106z"/>
<path d="M1865 1511 c-92 -22 -144 -108 -123 -204 22 -105 140 -157 244 -106
72 34 104 132 70 213 -18 43 -62 84 -101 91 -16 4 -37 8 -45 10 -8 1 -29 0
-45 -4z"/>
<path d="M5462 343 c-40 -8 -99 -76 -107 -122 -20 -118 50 -204 165 -204 99 0
163 64 163 163 0 66 -24 115 -72 143 -32 19 -109 29 -149 20z"/>
</g>
</svg>
